<?xml version="1.0" encoding="utf-8"?>
<!-- Generator: Adobe Illustrator 23.0.1, SVG Export Plug-In . SVG Version: 6.00 Build 0)  -->
<svg version="1.1" id="Layer_1" xmlns="http://www.w3.org/2000/svg" xmlns:xlink="http://www.w3.org/1999/xlink" x="0px" y="0px"
	 viewBox="0 0 512 511" style="enable-background:new 0 0 512 511;" xml:space="preserve">
<style type="text/css">
	.st0{fill:#231F20;}
	.st1{fill:#0F85D6;}
</style>
<path class="st0" d="M338.4,173.3c-5.1-5.1-13.4-5.1-18.5,0c-5.1,5.1-5.1,13.4,0,18.5c5.1,5.1,13.4,5.1,18.5,0
	C343.5,186.7,343.5,178.4,338.4,173.3z"/>
<path class="st0" d="M301.4,210.3c-5.1-5.1-13.4-5.1-18.5,0l-40.2,40.2c0,0,0,0,0,0l-13.4,13.4c0,0,0,0,0,0l-40.2,40.2c0,0,0,0,0,0
	l-55.5,55.5c-5.1,5.1-5.1,13.4,0,18.5c5.1,5.1,13.4,5.1,18.5,0l40.2-40.2l13.4-13.4l1.9-1.9l38.3-38.3l1.9-1.9l13.4-13.4l40.2-40.2
	C306.5,223.7,306.5,215.4,301.4,210.3z"/>
<path class="st1" d="M133.3,471.7l367.2-367.2c15.3-15.3,15.3-40.2,0-55.5l-37-37C448.2-3.3,423.3-3.3,408,12L40.8,379.2
	c-1.4,1.4-2.5,3.2-3.2,5.1l-37,111c-1.6,4.7-0.3,9.9,3.2,13.4c3.5,3.5,8.7,4.7,13.4,3.2l111-37C130.1,474.2,131.9,473.1,133.3,471.7
	z M426.5,30.5c5.1-5.1,13.4-5.1,18.5,0l37,37c5.1,5.1,5.1,13.4,0,18.5l-28.3,28.3l-55.5-55.5L426.5,30.5z M379.6,77.3l55.5,55.5
	l-18.5,18.5l-55.5-55.5L379.6,77.3z M77.2,379.7l265.4-265.4l55.5,55.5L132.7,435.2L77.2,379.7z M60.1,399.6l52.7,52.7l-79.1,26.4
	L60.1,399.6z"/>
</svg>
