<?xml version="1.0" encoding="utf-8"?>
<!-- Generator: Adobe Illustrator 23.0.1, SVG Export Plug-In . SVG Version: 6.00 Build 0)  -->
<svg version="1.1" id="Capa_1" xmlns="http://www.w3.org/2000/svg" xmlns:xlink="http://www.w3.org/1999/xlink" x="0px" y="0px"
	 viewBox="0 0 512 512" style="enable-background:new 0 0 512 512;" xml:space="preserve">
<style type="text/css">
	.st0{fill:#878787;}
</style>
<path class="st0" d="M256,0C114.8,0,0,114.8,0,256s114.8,256,256,256s256-114.8,256-256S397.2,0,256,0z M288,416h-64v-64h64V416z
	 M320,269.2l-32,32V320h-64v-32c0-8.5,3.4-16.6,9.4-22.6l41.4-41.4c8.4-8.4,13.2-20.1,13.2-32c0-17.6-14.4-32-32-32s-32,14.4-32,32
	v32h-64v-32c0-52.9,43.1-96,96-96s96,43.1,96,96C352,221.2,340.6,248.6,320,269.2L320,269.2z"/>
</svg>
