<?xml version="1.0" encoding="utf-8"?>
<!-- Generator: Adobe Illustrator 23.0.1, SVG Export Plug-In . SVG Version: 6.00 Build 0)  -->
<svg version="1.1" id="Layer_1" xmlns="http://www.w3.org/2000/svg" xmlns:xlink="http://www.w3.org/1999/xlink" x="0px" y="0px"
	 viewBox="0 0 512 512" style="enable-background:new 0 0 512 512;" xml:space="preserve">
<style type="text/css">
	.st0{fill:#0F85D6;}
	.st1{fill:#231F20;}
</style>
<path id="Shape" class="st0" d="M8.5,204.8v264.5c0,23.6,19.1,42.6,42.7,42.7h307.2c11.3,0,22.2-4.5,30.2-12.5
	c3.2-3.3,3.2-8.7-0.1-12s-8.6-3.3-12-0.1c-4.8,4.8-11.3,7.5-18.1,7.5H51.2c-14.1,0-25.6-11.5-25.6-25.6V208.7l103.3-90.4
	c9.4-8.3,14.8-20.3,14.6-32.8s-5.9-24.4-15.6-32.3L83.6,17.1h274.8c14.1,0,25.6,11.5,25.6,25.6v119.5c0,4.7,3.8,8.5,8.5,8.5
	s8.5-3.8,8.5-8.5V42.7C401,19.1,382,0,358.4,0H59.7c-4,0-7.5,2.8-8.3,6.7L8.7,203C8.6,203.6,8.5,204.2,8.5,204.8z M65.1,24L117,66.4
	c5.8,4.8,9.3,11.9,9.4,19.4c0.1,7.5-3.1,14.7-8.7,19.7l-86.7,75.9L65.1,24z"/>
<path class="st0" d="M59.7,221.9c0-4.7-3.8-8.5-8.5-8.5s-8.5,3.8-8.5,8.5v17.1c0,4.7,3.8,8.5,8.5,8.5s8.5-3.8,8.5-8.5V221.9z"/>
<path class="st0" d="M51.2,264.5c-4.7,0-8.5,3.8-8.5,8.5v153.6c0,4.7,3.8,8.5,8.5,8.5s8.5-3.8,8.5-8.5V273.1
	C59.7,268.4,55.9,264.5,51.2,264.5z"/>
<path class="st0" d="M192.7,76.8c4.7,0,8.5-3.8,8.5-8.5s-3.8-8.5-8.5-8.5h-17.1c-4.7,0-8.5,3.8-8.5,8.5c0,4.7,3.8,8.5,8.5,8.5H192.7
	z"/>
<path class="st0" d="M346.3,59.7H226.9c-4.7,0-8.5,3.8-8.5,8.5c0,4.7,3.8,8.5,8.5,8.5h119.5c4.7,0,8.5-3.8,8.5-8.5
	S351,59.7,346.3,59.7z"/>
<path class="st0" d="M158.6,119.5c0,4.7,3.8,8.5,8.5,8.5h34.1c4.7,0,8.5-3.8,8.5-8.5c0-4.7-3.8-8.5-8.5-8.5h-34.1
	C162.4,110.9,158.6,114.8,158.6,119.5z"/>
<path class="st0" d="M346.3,110.9H235.4c-4.7,0-8.5,3.8-8.5,8.5c0,4.7,3.8,8.5,8.5,8.5h110.9c4.7,0,8.5-3.8,8.5-8.5
	C354.9,114.8,351,110.9,346.3,110.9z"/>
<path class="st1" d="M354.7,218.5c-14.9-14.9-34-24.9-54.8-28.4c-3-0.6-6.1,0.5-8.1,2.9c-2,2.4-2.6,5.6-1.5,8.5s3.6,5,6.7,5.4
	c41.6,7.3,71.5,44,70.3,86.2c-1.2,42.2-33.1,77.2-75,82.2c-41.9,5-81.2-21.4-92.3-62.1c-11.1-40.7,9.3-83.4,48-100.4
	c4.2-2,6-6.9,4.2-11.1c-1.8-4.2-6.7-6.2-11-4.5c-41.1,18-65.7,60.7-60.7,105.4c5.1,44.6,38.6,80.7,82.8,89
	c44.1,8.3,88.5-13.1,109.5-52.8C393.8,299,386.4,250.2,354.7,218.5L354.7,218.5z"/>
<path class="st1" d="M422.7,383l-23-23c35-59.3,20.4-135.3-34-177.5S234.1,145.3,185.4,194S131.9,319.9,174,374.3s118.2,69,177.5,34
	l23,22.9c-1.6,5.9,0.1,12.1,4.4,16.4l54.3,54.3c6.4,6.4,15.1,10,24.1,10s17.7-3.6,24.1-10l12.1-12.1c13.3-13.3,13.3-34.9,0-48.3
	l-54.3-54.3C434.9,383.1,428.6,381.4,422.7,383L422.7,383z M197.8,375.3c-46.7-46.7-46.6-122.3,0-168.9s122.3-46.7,168.9,0
	s46.7,122.3,0,168.9C320.1,421.9,244.5,421.9,197.8,375.3L197.8,375.3z M378.8,387.4c4-4.1,7.8-8.4,11.2-12.9l18.9,18.9l-12.1,12.1
	l-12.1,12l-18.9-18.9C370.4,395.1,374.8,391.4,378.8,387.4L378.8,387.4z M486.4,465.8c0,4.5-1.8,8.9-5,12.1l-12.1,12.1
	c-6.8,6.5-17.4,6.5-24.1,0l-54.3-54.3l36.2-36.2l54.3,54.3C484.6,456.9,486.4,461.3,486.4,465.8L486.4,465.8z"/>
</svg>
