<?xml version="1.0" encoding="utf-8"?>
<!-- Generator: Adobe Illustrator 23.0.1, SVG Export Plug-In . SVG Version: 6.00 Build 0)  -->
<svg version="1.1" id="Capa_1" xmlns="http://www.w3.org/2000/svg" xmlns:xlink="http://www.w3.org/1999/xlink" x="0px" y="0px"
	 viewBox="0 0 512 512" style="enable-background:new 0 0 512 512;" xml:space="preserve">
<style type="text/css">
	.st0{fill:#FFFFFF;}
</style>
<path class="st0" d="M256,2.5C116.2,2.5,2.5,116.2,2.5,256S116.2,509.5,256,509.5S509.5,395.8,509.5,256S395.8,2.5,256,2.5z
	 M416.2,416.2c-42.8,42.8-99.7,66.3-160.2,66.3c-60.5,0-117.4-23.6-160.2-66.3C53.1,373.4,29.5,316.5,29.5,256
	c0-60.5,23.6-117.4,66.3-160.2S195.5,29.5,256,29.5c60.5,0,117.4,23.6,160.2,66.3c42.8,42.8,66.3,99.7,66.3,160.2
	C482.5,316.5,458.9,373.4,416.2,416.2z"/>
<circle class="st0" cx="176" cy="176" r="29.5"/>
<circle class="st0" cx="336" cy="176" r="29.5"/>
<path class="st0" d="M370.5,258.5c-1.3,62-52.2,112-114.5,112c-62.3,0-113.1-50-114.5-112h-27c1.3,76.9,64.3,139,141.5,139
	c77.2,0,140.1-62.1,141.5-139H370.5z"/>
</svg>
